# xmcd
#
# Track frame offsets: 
#        150
#        17065
#        34928
#        50021
#        66696
#        83555
#        99743
#        118501
#        136840
#        152355
#        170228
#        188289
#        203941
#        218905
#        236070
#        252196
#        269579
#        284454
#        301963
#        321115
#
# Disc length: 4514 seconds
#
# Revision: 0
# Processed by: cddbd v1.5.2PL0 Copyright (c) Steve Scherf et al.
# Submitted via: ExactAudioCopyFreeDBPlugin 1.0
#
DISCID=2511a014
DTITLE=Sizzla - Reggae Max Sizzla Max Part 2
DYEAR=2005
DGENRE=Reggae
TTITLE0=Go Somewhere
TTITLE1=Real
TTITLE2=Good Ways
TTITLE3=Half Has Never Been Told
TTITLE4=Give It To Dem
TTITLE5=Blessing
TTITLE6=Confuse City
TTITLE7=Stay Clean
TTITLE8=Juvenile
TTITLE9=Til It Some More
TTITLE10=Thank You Mama
TTITLE11=It's All Yours
TTITLE12=Dress Code
TTITLE13=Bandulo
TTITLE14=I Always Think About The Girls
TTITLE15=Haile Salassie
TTITLE16=Baby Love
TTITLE17=Sizzla feat Luciano - Jah Blessing
TTITLE18=Love In The House
TTITLE19=No Pain
EXTD=
EXTT0=
EXTT1=
EXTT2=
EXTT3=
EXTT4=
EXTT5=
EXTT6=
EXTT7=
EXTT8=
EXTT9=
EXTT10=
EXTT11=
EXTT12=
EXTT13=
EXTT14=
EXTT15=
EXTT16=
EXTT17=
EXTT18=
EXTT19=
PLAYORDER=
